<svg xmlns="http://www.w3.org/2000/svg" xmlns:xlink="http://www.w3.org/1999/xlink" xmlns:dc="http://purl.org/dc/elements/1.1/" xmlns:rdf="http://www.w3.org/1999/02/22-rdf-syntax-ns#" width="1000" height="1000" viewBox="0 10 200 200">
  <defs>
    <clipPath id="shield_279109437">
      <path d="m 25,25 v 170 l 25,-40 25,40 25,-40 25,40 25,-40 25,40 V 25 H 25 Z"/>
    </clipPath>
    <style>.secondary {
      fill: var(--secondary);
    }
    .tertiary {
      fill: var(--tertiary);
    }
    .pseudostroke {
      fill: var(--stroke);
    }
    .background {
      display: var(--background);
    }</style>
    <g id="crossFormee2" stroke-width=".5" author="Azgaar" license="https://creativecommons.org/publicdomain/zero/1.0">
      <path d="m 88,60 c 7,-5 17,-5 24,0 -7,8 -9,30 -7,35 5,2 27,0 35,-7 5,7 5,17 0,24 -8,-7 -30,-9 -35,-7 -2,5 0,27 7,35 -7,5 -17,5 -24,0 7,-8 9,-30 7,-35 -5,-2 -27,0 -35,7 -5,-7 -5,-17 0,-24 8,7 30,9 35,7 2,-5 0,-27 -7,-35 z"/>
    </g>
    <style xmlns="http://www.w3.org/1999/xhtml" type="text/css"></style>
  </defs>
  <g clip-path="url(#shield_279109437)">
    <rect class="field" x="0" y="0" width="200" height="200" fill="#fafafa"/>
    <g class="charge" i="0" charge="crossFormee2" fill="#d7374a" stroke="#000" style="--secondary: #d7374a; --tertiary: #d7374a; --stroke: #000; --background: block;">
      <use xlink:href="#crossFormee2" transform="translate(10 10) scale(0.4)"/>
      <use xlink:href="#crossFormee2" transform="translate(60 10) scale(0.4)"/>
      <use xlink:href="#crossFormee2" transform="translate(110 10) scale(0.4)"/>
      <use xlink:href="#crossFormee2" transform="translate(22.5 60) scale(0.4)"/>
      <use xlink:href="#crossFormee2" transform="translate(97.5 60) scale(0.4)"/>
      <use xlink:href="#crossFormee2" transform="translate(60 100) scale(0.4)"/>
    </g>
  </g>
  <path class="grad" d="m 25,25 v 170 l 25,-40 25,40 25,-40 25,40 25,-40 25,40 V 25 H 25 Z" fill="none" stroke="none" style="pointer-events: none;"/>
</svg>