<svg xmlns="http://www.w3.org/2000/svg" xmlns:xlink="http://www.w3.org/1999/xlink" xmlns:dc="http://purl.org/dc/elements/1.1/" xmlns:rdf="http://www.w3.org/1999/02/22-rdf-syntax-ns#" width="1000" height="1000" viewBox="0 10 200 200">
  <defs>
    <clipPath id="shield_273697600">
      <path d="m25,25 h150 v75 a100,100,0,0,1,-75,100 a100,100,0,0,1,-75,-100 v-75 z"/>
    </clipPath>
    <clipPath id="division_273697600">
      <rect x="100" y="0" width="100" height="100"/>
      <rect x="0" y="100" width="100" height="100"/>
    </clipPath>
    <style>.secondary {
      fill: var(--secondary);
    }
    .tertiary {
      fill: var(--tertiary);
    }
    .pseudostroke {
      fill: var(--stroke);
    }
    .background {
      display: var(--background);
    }</style>
    <pattern id="counterPotent-or-azure" width="25" height="25" viewBox="0 0 200 200" patternUnits="userSpaceOnUse" stroke="none">
      <rect width="200" height="200" fill="#ffe066"/>
      <path d="m25 50h50v-50h50v50h50v100h-50v50h-50v-50h-50v-50z" fill="#3a37d7"/>
      <path d="m0 0h200 M0 100h200 M0 200h200"/>
    </pattern>
    <style xmlns="http://www.w3.org/1999/xhtml" type="text/css"></style>
  </defs>
  <g clip-path="url(#shield_273697600)">
    <rect class="field" x="0" y="0" width="200" height="200" fill="url(#counterPotent-or-azure)"/>
    <g class="division" clip-path="url(#division_273697600)">
      <rect x="0" y="0" width="200" height="200" fill="#d7374a"/>
    </g>
  </g>
  <path class="grad" d="m25,25 h150 v75 a100,100,0,0,1,-75,100 a100,100,0,0,1,-75,-100 v-75 z" fill="none" stroke="none" style="pointer-events: none;"/>
</svg>